<svg width="32" height="32" xmlns="http://www.w3.org/2000/svg" style="image-rendering: pixelated;">
  <!-- Pixelated pointing finger on black background -->
  <rect width="32" height="32" fill="#000"/>
  <!-- Pixelated hand pointing right - brownish-orange tones -->
  <!-- Wrist area (left side) -->
  <rect x="2" y="10" width="3" height="3" fill="#8b4513"/>
  <rect x="2" y="13" width="3" height="3" fill="#8b4513"/>
  <rect x="2" y="16" width="3" height="3" fill="#8b4513"/>
  <rect x="2" y="19" width="3" height="3" fill="#8b4513"/>
  <!-- Hand base -->
  <rect x="5" y="10" width="3" height="3" fill="#cd853f"/>
  <rect x="5" y="13" width="3" height="3" fill="#d2691e"/>
  <rect x="5" y="16" width="3" height="3" fill="#d2691e"/>
  <rect x="5" y="19" width="3" height="3" fill="#cd853f"/>
  <!-- Middle of hand -->
  <rect x="8" y="11" width="3" height="3" fill="#d2691e"/>
  <rect x="8" y="14" width="3" height="3" fill="#da8a3e"/>
  <rect x="8" y="17" width="3" height="3" fill="#da8a3e"/>
  <rect x="8" y="20" width="3" height="3" fill="#d2691e"/>
  <!-- Fingers area -->
  <rect x="11" y="8" width="3" height="3" fill="#d2691e"/>
  <rect x="11" y="11" width="3" height="3" fill="#da8a3e"/>
  <rect x="11" y="14" width="3" height="3" fill="#da8a3e"/>
  <rect x="11" y="17" width="3" height="3" fill="#da8a3e"/>
  <rect x="11" y="20" width="3" height="3" fill="#d2691e"/>
  <rect x="11" y="23" width="3" height="3" fill="#d2691e"/>
  <!-- Extended pointing finger (right side) -->
  <rect x="14" y="8" width="3" height="3" fill="#da8a3e"/>
  <rect x="14" y="11" width="3" height="3" fill="#da8a3e"/>
  <rect x="14" y="14" width="3" height="3" fill="#da8a3e"/>
  <rect x="17" y="8" width="3" height="3" fill="#da8a3e"/>
  <rect x="17" y="11" width="3" height="3" fill="#da8a3e"/>
  <rect x="20" y="8" width="3" height="3" fill="#da8a3e"/>
  <rect x="20" y="11" width="3" height="3" fill="#da8a3e"/>
  <rect x="23" y="8" width="3" height="3" fill="#da8a3e"/>
</svg>

